<?xml version="1.0" standalone="no"?>
<!DOCTYPE svg PUBLIC "-//W3C//DTD SVG 20010904//EN"
 "http://www.w3.org/TR/2001/REC-SVG-20010904/DTD/svg10.dtd">
<svg version="1.0" xmlns="http://www.w3.org/2000/svg"
 width="500.000000pt" height="500.000000pt" viewBox="0 0 500.000000 500.000000"
 preserveAspectRatio="xMidYMid meet">
<metadata>
Created by potrace 1.16, written by Peter Selinger 2001-2019
</metadata>
<g transform="translate(0.000000,500.000000) scale(0.100000,-0.100000)"
fill="#000000" stroke="none">
<path d="M2325 4994 c-255 -25 -414 -57 -617 -124 -368 -121 -690 -321 -974
-604 -398 -399 -637 -886 -715 -1456 -17 -123 -17 -497 0 -620 78 -570 317
-1057 715 -1456 399 -398 886 -637 1456 -715 123 -17 497 -17 620 0 570 78
1057 317 1456 715 398 399 637 886 715 1456 17 123 17 497 0 620 -78 570 -317
1057 -715 1456 -391 390 -870 629 -1421 710 -98 14 -440 26 -520 18z m393
-314 c1122 -120 1972 -1059 1972 -2180 0 -1044 -748 -1951 -1774 -2150 -278
-54 -554 -54 -832 0 -1026 199 -1774 1106 -1774 2150 0 1033 731 1932 1747
2145 196 42 465 56 661 35z"/>
<path d="M2330 4053 c-14 -3 -29 -8 -35 -13 -5 -4 -35 -15 -65 -25 -66 -22
-151 -60 -159 -72 -3 -5 -32 -28 -65 -51 -32 -23 -69 -56 -82 -74 -14 -18 -31
-36 -39 -41 -8 -4 -22 -23 -31 -42 -9 -19 -26 -45 -38 -58 -37 -40 -96 -200
-96 -261 0 -14 -4 -26 -10 -26 -12 0 -14 -247 -1 -254 4 -3 11 -25 15 -48 11
-67 47 -177 63 -193 8 -8 11 -15 6 -15 -4 0 0 -5 10 -11 9 -5 17 -15 17 -20 0
-45 223 -269 267 -269 4 0 21 -11 36 -24 56 -48 224 -86 382 -86 153 0 326 39
370 84 9 9 21 16 26 16 17 0 96 58 152 110 29 27 55 50 60 50 4 0 7 5 7 11 0
5 16 31 35 56 19 25 35 52 35 59 0 8 5 14 12 14 6 0 9 3 5 6 -3 4 0 13 8 21
16 15 65 162 65 194 0 10 5 19 11 19 7 0 10 17 7 45 -2 25 0 45 4 45 5 0 8 27
8 60 0 33 -3 60 -8 60 -4 0 -6 19 -4 41 3 23 0 44 -5 48 -5 3 -14 34 -21 68
-14 67 -50 162 -68 178 -6 6 -24 33 -41 60 -29 49 -142 175 -157 175 -8 0 -68
41 -77 53 -11 14 -79 47 -141 68 -35 11 -72 25 -83 32 -20 12 -325 20 -375 10z"/>
<path d="M1835 2549 c-5 -5 -40 -28 -77 -49 -37 -22 -84 -56 -105 -75 -21 -19
-41 -35 -45 -35 -11 0 -224 -220 -238 -245 -11 -22 -66 -101 -79 -115 -7 -8
-27 -43 -43 -79 -16 -36 -33 -68 -37 -71 -12 -8 -48 -109 -72 -200 -13 -47
-27 -88 -32 -91 -6 -4 -7 -16 -4 -27 2 -12 0 -23 -6 -25 -7 -2 -12 -58 -15
-150 l-5 -147 1422 0 1421 0 0 115 c0 113 -17 255 -31 255 -4 0 -10 15 -14 33
-10 52 -77 247 -85 247 -3 0 -19 26 -33 58 -15 32 -35 67 -45 78 -10 11 -17
25 -14 32 2 6 -1 12 -6 12 -5 0 -25 24 -45 53 -19 30 -48 68 -64 85 -67 74
-166 170 -208 201 -25 18 -45 37 -45 42 0 5 -5 9 -11 9 -6 0 -29 13 -52 28
-23 16 -57 34 -74 41 -18 8 -33 17 -33 22 0 17 -22 9 -42 -16 -10 -13 -34 -32
-52 -40 -18 -9 -42 -24 -53 -35 -27 -25 -104 -62 -178 -86 -33 -10 -62 -22
-65 -25 -26 -33 -307 -50 -444 -26 -49 9 -92 19 -95 24 -3 4 -31 16 -61 26
-64 22 -161 67 -175 83 -5 6 -36 27 -67 48 -32 20 -58 41 -58 47 0 12 -22 11
-35 -2z"/>
</g>
</svg>
