<svg id="SvgjsSvg1001" width="288" height="288" xmlns="http://www.w3.org/2000/svg" version="1.1" xmlns:xlink="http://www.w3.org/1999/xlink" xmlns:svgjs="http://svgjs.com/svgjs"><defs id="SvgjsDefs1002"></defs><g id="SvgjsG1008" transform="matrix(0.916700005531311,0,0,0.916700005531311,11.471681594848633,11.859966278076172)"><svg xmlns="http://www.w3.org/2000/svg" width="288" height="288" version="1.0" viewBox="0 0 900 660"><path d="M1822 5457 c-39 -15 -87 -59 -109 -100 -31 -62 -15 -163 36 -221 42-48 60 -51 355 -56 l278 -5 53 -140 c29 -77 101 -268 160 -425 59 -157 149
-395 200 -530 214 -563 618 -1636 622 -1650 3 -10 -13 -27 -45 -48 -108 -70
-203 -202 -237 -332 -32 -119 -14 -294 42 -404 175 -348 632 -421 903 -146
140 142 201 363 150 541 -7 22 -6 35 1 39 11 8 1127 6 1134 -1 2 -3 -1 -23 -7
-45 -17 -61 -14 -210 6 -279 57 -195 193 -336 386 -401 76 -26 244 -26 320 0
148 50 267 147 332 272 52 99 71 173 71 279 0 153 -49 278 -153 389 -73 78
-135 119 -232 154 l-73 27 -1101 3 -1101 3 -50 134 -51 135 42 0 c22 0 590 1
1261 3 l1220 2 47 27 c25 15 55 42 66 60 28 47 562 1792 562 1836 0 45 -29
109 -61 139 -62 56 69 53 -2018 53 -1818 0 -1919 1 -1926 18 -4 9 -54 143
-112 297 -57 154 -115 294 -129 311 -13 18 -43 41 -67 53 -42 20 -57 21 -393
20 -241 0 -359 -4 -382 -12z m2318 -1099 c0 -13 9 -135 20 -273 11 -137 20
-262 20 -277 l0 -28 -447 0 -448 0 -110 291 c-60 160 -111 295 -113 300 -2 5
221 9 537 9 l541 0 0 -22z m1113 15 c2 -5 -7 -134 -19 -288 -13 -154 -23 -286
-23 -292 -1 -10 -91 -13 -416 -13 -228 0 -415 3 -416 8 0 4 -10 135 -23 292
-13 157 -21 288 -19 293 2 4 208 7 458 7 250 0 456 -3 458 -7z m1197 0 c0 -6
-46 -155 -146 -480 l-35 -113 -430 0 -429 0 0 38 c0 20 9 145 20 277 11 132
20 250 20 263 l0 22 500 0 c275 0 500 -3 500 -7z m-2250 -805 c0 -7 9 -125 20
-263 11 -137 20 -251 20 -252 0 -2 -153 -3 -339 -3 -313 0 -339 1 -346 18 -4
9 -44 116 -90 237 -46 121 -88 232 -94 248 l-11 27 420 0 c329 0 420 -3 420
-12z m990 -20 c0 -47 -30 -449 -36 -476 l-4 -22 -358 2 -357 3 -17 210 c-9
116 -17 234 -17 263 l-1 52 395 0 395 0 0 -32z m994 -45 c-13 -43 -49 -162
-81 -265 l-57 -188 -348 0 c-272 0 -348 3 -348 13 0 6 9 122 20 257 11 135 20
248 20 253 0 4 184 7 409 7 l409 0 -24 -77z m-193 -1539 c38 -19 76 -68 91
-115 36 -123 -90 -252 -214 -218 -54 14 -112 71 -128 126 -44 146 114 276 251
207z m-2232 2 c108 -56 132 -201 47 -288 -102 -105 -268 -50 -300 99 -15 67
34 161 99 189 40 18 119 17 154 0z" transform="matrix(.1 0 0 -.1 0 660)" fill="#ffffff" class="color000 svgShape"></path></svg></g></svg>